HIERARCHY
ROOT Hips
{
	OFFSET 0.00000 0.00000 0.00000
	CHANNELS 6 Xposition Yposition Zposition Zrotation Yrotation Xrotation 
	JOINT LHipJoint
	{
		OFFSET 0 0 0
		CHANNELS 3 Zrotation Yrotation Xrotation
		JOINT LeftUpLeg
		{
			OFFSET 1.58895 -1.83665 0.71753
			CHANNELS 3 Zrotation Yrotation Xrotation
			JOINT LeftLeg
			{
				OFFSET 2.50528 -6.88321 0.00000
				CHANNELS 3 Zrotation Yrotation Xrotation
				JOINT LeftFoot
				{
					OFFSET 2.63244 -7.23257 0.00000
					CHANNELS 3 Zrotation Yrotation Xrotation
					JOINT LeftToeBase
					{
						OFFSET 0.23691 -0.65090 1.72750
						CHANNELS 3 Zrotation Yrotation Xrotation
						End Site
						{
							OFFSET 0.00000 -0.00000 0.92561
						}
					}
				}
			}
		}
	}
	JOINT RHipJoint
	{
		OFFSET 0 0 0
		CHANNELS 3 Zrotation Yrotation Xrotation
		JOINT RightUpLeg
		{
			OFFSET -1.51435 -1.83665 0.71753
			CHANNELS 3 Zrotation Yrotation Xrotation
			JOINT RightLeg
			{
				OFFSET -2.54551 -6.99375 0.00000
				CHANNELS 3 Zrotation Yrotation Xrotation
				JOINT RightFoot
				{
					OFFSET -2.66027 -7.30903 0.00000
					CHANNELS 3 Zrotation Yrotation Xrotation
					JOINT RightToeBase
					{
						OFFSET -0.22981 -0.63138 2.03959
						CHANNELS 3 Zrotation Yrotation Xrotation
						End Site
						{
							OFFSET -0.00000 -0.00000 1.07060
						}
					}
				}
			}
		}
	}
	JOINT LowerBack
	{
		OFFSET 0 0 0
		CHANNELS 3 Zrotation Yrotation Xrotation
		JOINT Spine
		{
			OFFSET -0.02651 1.86275 -0.11152
			CHANNELS 3 Zrotation Yrotation Xrotation
			JOINT Spine1
			{
				OFFSET 0.01019 1.86224 0.04087
				CHANNELS 3 Zrotation Yrotation Xrotation
				JOINT Neck
				{
					OFFSET 0 0 0
					CHANNELS 3 Zrotation Yrotation Xrotation
					JOINT Neck1
					{
						OFFSET -0.01926 1.80512 0.08867
						CHANNELS 3 Zrotation Yrotation Xrotation
						JOINT Head
						{
							OFFSET 0.05516 1.76451 -0.38475
							CHANNELS 3 Zrotation Yrotation Xrotation
							End Site
							{
								OFFSET 0.01592 1.82587 -0.14001
							}
						}
					}
				}
				JOINT LeftShoulder
				{
					OFFSET 0 0 0
					CHANNELS 3 Zrotation Yrotation Xrotation
					JOINT LeftArm
					{
						OFFSET 3.47116 1.51376 0.14491
						CHANNELS 3 Zrotation Yrotation Xrotation
						JOINT LeftForeArm
						{
							OFFSET 4.78095 -0.00000 0.00000
							CHANNELS 3 Zrotation Yrotation Xrotation
							JOINT LeftHand
							{
								OFFSET 3.58615 -0.00000 -0.00000
								CHANNELS 3 Zrotation Yrotation Xrotation
								JOINT LeftFingerBase
								{
									OFFSET 0 0 0
									CHANNELS 3 Zrotation Yrotation Xrotation
									JOINT LeftHandIndex1
									{
										OFFSET 0.65981 -0.00000 0.00000
										CHANNELS 3 Zrotation Yrotation Xrotation
										End Site
										{
											OFFSET 0.53196 -0.00000 0.00000
										}
									}
								}
								JOINT LThumb
								{
									OFFSET 0 0 0
									CHANNELS 3 Zrotation Yrotation Xrotation
									End Site
									{
										OFFSET 0.54008 -0.00000 0.54008
									}
								}
							}
						}
					}
				}
				JOINT RightShoulder
				{
					OFFSET 0 0 0
					CHANNELS 3 Zrotation Yrotation Xrotation
					JOINT RightArm
					{
						OFFSET -3.31725 1.61216 0.35156
						CHANNELS 3 Zrotation Yrotation Xrotation
						JOINT RightForeArm
						{
							OFFSET -4.48913 -0.00000 0.00000
							CHANNELS 3 Zrotation Yrotation Xrotation
							JOINT RightHand
							{
								OFFSET -3.70510 -0.00000 0.00000
								CHANNELS 3 Zrotation Yrotation Xrotation
								JOINT RightFingerBase
								{
									OFFSET 0 0 0
									CHANNELS 3 Zrotation Yrotation Xrotation
									JOINT RightHandIndex1
									{
										OFFSET -0.44914 -0.00000 0.00000
										CHANNELS 3 Zrotation Yrotation Xrotation
										End Site
										{
											OFFSET -0.36211 -0.00000 0.00000
										}
									}
								}
								JOINT RThumb
								{
									OFFSET 0 0 0
									CHANNELS 3 Zrotation Yrotation Xrotation
									End Site
									{
										OFFSET -0.36763 -0.00000 0.36763
									}
								}
							}
						}
					}
				}
			}
		}
	}
}
MOTION
Frames: 14
Frame Time: .0083333
-0.5679 18.7086 5.8314 0 0 0 0 0 0 -21 0 0 0 0 0 0 0 0 0 0 0 0 0 0 21 0 0 0 0 0 0 0 0 0 0 0 0 0 0 0 0 0 0 0 0 0 0 -16 0 0 21 0 0 11 0 0 0 -8 0 0 0 0 0 0 0 0 0 0 0 0 0 0 0 0 0 0 0 0 8 0 0 0 0 0 0 0 0 0 0 0 0 0 0 0 0 0
-0.5679 18.7086 5.8314 -0.3672 -3.4947 4.0155 0.0000 0.0000 0.0000 -14.1951 -8.0461 -2.4731 1.1102 6.6941 18.8123 1.5397 6.2366 -26.4121 8.2726 -16.3161 -53.5385 0.0000 0.0000 0.0000 13.2739 4.2048 5.2041 0.0000 -0.0000 0.0000 -0.7929 -5.3549 -19.5974 -0.1413 2.4224 -6.6745 -1.7801 0.9710 1.6423 0.3570 1.2441 -3.1641 1.2992 0.6833 -4.2270 -1.9249 -2.0291 -11.4574 2.3060 -3.0152 23.5798 0.7745 -1.3318 9.3709 -0.0000 -0.0000 0.0000 -90.5807 10.3512 28.0424 18.9853 -29.4004 -5.0236 -0.0000 -0.0000 10.9076 5.1029 -26.5650 -2.2869 -7.1250 0.0000 -0.0000 -14.8629 4.0712 14.2679 -0.0000 -0.0000 0.0000 88.3142 -19.3104 28.0314 -24.9718 36.1752 -8.2733 0.0000 0.0000 19.9020 -8.6710 -36.3728 5.1678 7.1250 -0.0000 -0.0000 31.4499 -63.9641 -15.1828
-0.5677 18.7087 5.8315 -0.3881 -3.4952 4.0306 0.0000 0.0000 0.0000 -14.1714 -8.0697 -2.4885 1.1117 6.6986 18.8256 1.5437 6.2275 -26.4359 8.2780 -16.3199 -53.5578 0.0000 0.0000 0.0000 13.2957 4.2094 5.1925 0.0000 0.0000 -0.0000 -0.7908 -5.3577 -19.5780 -0.1396 2.4081 -6.6348 -1.7640 0.9661 1.6425 0.3688 1.2385 -3.1715 1.3025 0.6803 -4.2345 -1.9044 -2.0204 -11.4154 2.2618 -2.9961 23.5419 0.7584 -1.3264 9.3481 -0.0000 0.0000 0.0000 -90.5876 10.3738 28.0544 19.0236 -29.4480 -5.0424 -0.0000 -0.0000 10.8026 4.9747 -26.5006 -2.2242 -7.1250 0.0000 -0.0000 -14.9379 4.1450 14.3241 -0.0000 0.0000 0.0000 88.2938 -19.2996 28.0459 -24.9516 36.1545 -8.2613 0.0000 0.0000 19.8986 -8.6830 -36.2695 5.1624 7.1250 -0.0000 -0.0000 31.3142 -63.8813 -15.0508
-0.5675 18.7087 5.8318 -0.4003 -3.5043 4.0350 0.0000 0.0000 0.0000 -14.1611 -8.0758 -2.4947 1.1137 6.7043 18.8423 1.5455 6.2206 -26.4447 8.2834 -16.3238 -53.5771 0.0000 0.0000 0.0000 13.3079 4.2208 5.1886 0.0000 -0.0000 0.0000 -0.7903 -5.3567 -19.5729 -0.1396 2.4082 -6.6352 -1.7516 0.9627 1.6482 0.3758 1.2345 -3.1816 1.3029 0.6782 -4.2480 -1.8811 -1.9986 -11.3613 2.2331 -2.9632 23.5039 0.7489 -1.3128 9.3229 0.0000 0.0000 0.0000 -90.5864 10.4180 28.0758 19.0700 -29.5056 -5.0653 -0.0000 -0.0000 10.7228 4.8848 -26.3794 -2.1746 -7.1250 0.0000 -0.0000 -14.9901 4.2701 14.3418 0.0000 0.0000 0.0000 88.2908 -19.3170 28.0533 -24.9685 36.1717 -8.2713 0.0000 0.0000 19.8888 -8.5792 -36.3617 5.1112 7.1250 -0.0000 -0.0000 31.5322 -63.9302 -15.2017
-0.5671 18.7088 5.8330 -0.4141 -3.5100 4.0301 0.0000 0.0000 0.0000 -14.1462 -8.0234 -2.5043 1.1147 6.7072 18.8508 1.5385 6.2190 -26.3926 8.2953 -16.3322 -53.6196 0.0000 0.0000 0.0000 13.3228 4.2263 5.1950 0.0000 0.0000 0.0000 -0.7903 -5.3650 -19.5780 -0.1427 2.4344 -6.7078 -1.7344 0.9542 1.6410 0.3921 1.2246 -3.1750 1.3108 0.6728 -4.2365 -1.9168 -1.9935 -11.3762 2.2482 -2.9522 23.5196 0.7612 -1.3090 9.3318 0.0000 0.0000 0.0000 -90.6075 10.4370 28.0773 19.1057 -29.5498 -5.0829 -0.0000 -0.0000 10.6915 4.9208 -26.2612 -2.1816 -7.1250 0.0000 -0.0000 -14.9682 4.3811 14.2872 0.0000 0.0000 0.0000 88.2613 -19.3105 28.0873 -24.9892 36.1929 -8.2835 0.0000 0.0000 19.8555 -8.6018 -36.4883 5.1401 7.1250 -0.0000 -0.0000 31.6610 -64.0416 -15.3518
-0.5669 18.7090 5.8341 -0.4208 -3.5099 4.0371 0.0000 0.0000 0.0000 -14.1414 -8.0346 -2.5051 1.1154 6.7094 18.8573 1.5381 6.2460 -26.4063 8.3068 -16.3404 -53.6605 0.0000 0.0000 0.0000 13.3283 4.2270 5.1919 0.0000 0.0000 -0.0000 -0.7895 -5.3840 -19.5829 -0.1425 2.4332 -6.7043 -1.7319 0.9435 1.6235 0.4097 1.2114 -3.1650 1.3286 0.6663 -4.2161 -1.9617 -1.9946 -11.4259 2.2625 -2.9476 23.5399 0.7738 -1.3088 9.3492 -0.0000 0.0000 0.0000 -90.6297 10.4243 28.0813 19.1168 -29.5635 -5.0883 -0.0000 -0.0000 10.6683 4.9615 -26.2383 -2.1979 -7.1250 0.0000 -0.0000 -14.9441 4.3995 14.2571 -0.0000 0.0000 0.0000 88.2349 -19.2846 28.0921 -24.9924 36.1962 -8.2854 0.0000 0.0000 19.8631 -8.6812 -36.5753 5.1985 7.1250 -0.0000 -0.0000 31.6835 -64.1352 -15.4325
-0.5668 18.7096 5.8354 -0.4160 -3.5059 4.0641 0.0000 0.0000 0.0000 -14.1455 -8.0645 -2.5254 1.1159 6.7108 18.8612 1.5438 6.2484 -26.4492 8.3079 -16.3411 -53.6641 0.0000 0.0000 0.0000 13.3184 4.2274 5.1689 0.0000 0.0000 -0.0000 -0.7907 -5.3809 -19.5931 -0.1420 2.4284 -6.6912 -1.7290 0.9391 1.5809 0.4094 1.2064 -3.1627 1.3278 0.6635 -4.1893 -1.9844 -1.9919 -11.4537 2.2844 -2.9439 23.5428 0.7854 -1.3064 9.3561 -0.0000 -0.0000 0.0000 -90.6197 10.4107 28.1328 19.1238 -29.5722 -5.0918 -0.0000 -0.0000 10.6141 4.9469 -26.2391 -2.1915 -7.1250 0.0000 -0.0000 -14.9527 4.4000 14.2658 -0.0000 -0.0000 0.0000 88.2504 -19.2724 28.0459 -24.9907 36.1944 -8.2844 0.0000 0.0000 19.9103 -8.6991 -36.6452 5.2179 7.1250 -0.0000 -0.0000 31.7499 -64.1981 -15.5142
-0.5661 18.7097 5.8368 -0.3993 -3.5067 4.0929 0.0000 0.0000 0.0000 -14.1652 -8.0840 -2.5484 1.1158 6.7105 18.8605 1.5469 6.2440 -26.4686 8.3003 -16.3357 -53.6371 0.0000 0.0000 0.0000 13.2946 4.2334 5.1409 0.0000 0.0000 -0.0000 -0.7915 -5.3728 -19.5954 -0.1453 2.4567 -6.7697 -1.7301 0.9428 1.5454 0.4048 1.2117 -3.1734 1.3238 0.6661 -4.1804 -1.9675 -1.9905 -11.4496 2.2362 -2.9334 23.5324 0.7672 -1.3053 9.3504 0.0000 0.0000 0.0000 -90.6096 10.4260 28.2018 19.1383 -29.5902 -5.0990 -0.0000 -0.0000 10.5488 4.9456 -26.2097 -2.1887 -7.1250 0.0000 -0.0000 -14.9533 4.4286 14.2582 0.0000 0.0000 0.0000 88.2522 -19.2762 28.0145 -24.9874 36.1911 -8.2824 0.0000 0.0000 19.9087 -8.6947 -36.6404 5.2147 7.1250 -0.0000 -0.0000 31.7485 -64.1930 -15.5097
-0.5653 18.7092 5.8377 -0.3993 -3.5115 4.0942 0.0000 0.0000 0.0000 -14.1677 -8.0770 -2.5477 1.1156 6.7099 18.8589 1.5469 6.2199 -26.4546 8.2777 -16.3197 -53.5568 0.0000 0.0000 0.0000 13.2924 4.2375 5.1426 0.0000 0.0000 -0.0000 -0.7914 -5.3737 -19.5950 -0.1424 2.4316 -6.7000 -1.7102 0.9488 1.5627 0.4033 1.2199 -3.1880 1.3102 0.6698 -4.2051 -1.9847 -1.9961 -11.4692 2.2398 -2.9394 23.5819 0.7705 -1.3088 9.3719 0.0000 -0.0000 0.0000 -90.6096 10.4298 28.2153 19.1263 -29.5753 -5.0930 -0.0000 -0.0000 10.5368 4.9402 -26.2210 -2.1871 -7.1250 0.0000 -0.0000 -14.9566 4.4182 14.2646 0.0000 -0.0000 0.0000 88.2463 -19.2973 28.0124 -24.9895 36.1933 -8.2837 0.0000 0.0000 19.8751 -8.7173 -36.5971 5.2231 7.1250 -0.0000 -0.0000 31.6724 -64.1632 -15.4470
-0.5652 18.7091 5.8388 -0.4234 -3.5070 4.0871 0.0000 0.0000 0.0000 -14.1446 -8.0884 -2.5293 1.1157 6.7102 18.8595 1.5474 6.2194 -26.4577 8.2661 -16.3115 -53.5155 0.0000 0.0000 0.0000 13.3199 4.2309 5.1558 0.0000 -0.0000 0.0000 -0.7933 -5.3700 -19.6118 -0.1349 2.3675 -6.5225 -1.6620 0.9456 1.5702 0.4054 1.2174 -3.1828 1.2855 0.6670 -4.2028 -2.0388 -1.9972 -11.5151 2.3061 -2.9462 23.6347 0.8013 -1.3089 9.4012 -0.0000 -0.0000 0.0000 -90.6236 10.3706 28.1469 19.0710 -29.5068 -5.0658 -0.0000 -0.0000 10.6018 4.9621 -26.2613 -2.2000 -7.1250 0.0000 -0.0000 -14.9439 4.3772 14.2633 -0.0000 -0.0000 0.0000 88.2468 -19.2908 28.0349 -24.9947 36.1986 -8.2868 0.0000 0.0000 19.8540 -8.7483 -36.5829 5.2401 7.1250 -0.0000 -0.0000 31.6227 -64.1597 -15.4178
-0.5657 18.7092 5.8405 -0.4124 -3.5010 4.1070 0.0000 0.0000 0.0000 -14.1560 -8.1176 -2.5401 1.1163 6.7118 18.8644 1.5490 6.2488 -26.4863 8.2764 -16.3189 -53.5524 0.0000 0.0000 0.0000 13.3070 4.2271 5.1394 0.0000 0.0000 -0.0000 -0.7927 -5.3680 -19.6043 -0.1363 2.3792 -6.5549 -1.6718 0.9328 1.5177 0.4064 1.2009 -3.1668 1.2939 0.6586 -4.1560 -2.0580 -1.9930 -11.5407 2.3117 -2.9367 23.6180 0.8073 -1.3055 9.4003 -0.0000 0.0000 0.0000 -90.6424 10.3127 28.0656 19.0311 -29.4573 -5.0461 -0.0000 -0.0000 10.6785 4.9982 -26.2480 -2.2150 -7.1250 0.0000 -0.0000 -14.9225 4.3869 14.2387 -0.0000 0.0000 0.0000 88.2401 -19.2588 28.0650 -25.0005 36.2045 -8.2902 0.0000 0.0000 19.8552 -8.7453 -36.6057 5.2411 7.1250 -0.0000 -0.0000 31.6536 -64.1779 -15.4477
-0.5665 18.7092 5.8418 -0.4042 -3.4956 4.1295 0.0000 0.0000 0.0000 -14.1527 -8.0851 -2.5807 1.1166 6.7129 18.8675 1.5491 6.2184 -26.4690 8.2815 -16.3224 -53.5704 0.0000 0.0000 0.0000 13.2999 4.2260 5.1172 0.0000 0.0000 -0.0000 -0.7880 -5.3896 -19.5721 -0.1421 2.4293 -6.6937 -1.6869 0.9236 1.4672 0.4020 1.1888 -3.1608 1.2993 0.6527 -4.1209 -2.0530 -1.9922 -11.5326 2.3248 -2.9399 23.6062 0.8106 -1.3052 9.3949 -0.0000 -0.0000 0.0000 -90.6217 10.3068 28.0482 19.0255 -29.4503 -5.0434 -0.0000 -0.0000 10.6918 4.9626 -26.2085 -2.1961 -7.1250 0.0000 -0.0000 -14.9433 4.4282 14.2480 -0.0000 -0.0000 0.0000 88.2588 -19.2491 28.0619 -25.0055 36.2096 -8.2931 0.0000 0.0000 19.8854 -8.7112 -36.6111 5.2211 7.1250 -0.0000 -0.0000 31.6958 -64.1732 -15.4669
-0.5672 18.7096 5.8430 -0.4491 -3.4806 4.1495 0.0000 0.0000 0.0000 -14.0886 -8.0418 -2.6185 1.1165 6.7126 18.8666 1.5467 6.1579 -26.4157 8.2762 -16.3187 -53.5515 0.0000 0.0000 0.0000 13.3534 4.2179 5.0998 0.0000 -0.0000 0.0000 -0.7859 -5.4033 -19.5602 -0.1443 2.4480 -6.7456 -1.6478 0.9170 1.4452 0.4138 1.1821 -3.1716 1.2902 0.6484 -4.1188 -1.9895 -1.9827 -11.4633 2.2532 -2.9222 23.5509 0.7779 -1.3001 9.3598 -0.0000 -0.0000 0.0000 -90.5967 10.3316 28.0819 19.0236 -29.4480 -5.0425 -0.0000 -0.0000 10.6644 4.8918 -26.2495 -2.1678 -7.1250 0.0000 -0.0000 -14.9853 4.3949 14.3007 -0.0000 -0.0000 0.0000 88.2646 -19.2558 28.0603 -25.0055 36.2096 -8.2931 0.0000 0.0000 19.9221 -8.7097 -36.5842 5.2169 7.1250 -0.0000 -0.0000 31.6646 -64.1504 -15.4334
-0.5680 18.7099 5.8440 -0.4682 -3.4684 4.1828 0.0000 0.0000 0.0000 -14.0590 -8.0613 -2.6494 1.1165 6.7125 18.8664 1.5448 6.1502 -26.3973 8.2680 -16.3129 -53.5223 0.0000 0.0000 0.0000 13.3742 4.2136 5.0696 0.0000 0.0000 -0.0000 -0.7890 -5.3917 -19.5830 -0.1445 2.4494 -6.7492 -1.6531 0.9118 1.4041 0.4313 1.1762 -3.1809 1.3120 0.6459 -4.1054 -1.9339 -1.9774 -11.4126 2.1604 -2.9031 23.4887 0.7392 -1.2970 9.3256 -0.0000 0.0000 0.0000 -90.6060 10.3379 28.1030 19.0242 -29.4488 -5.0428 -0.0000 -0.0000 10.6374 4.8307 -26.3363 -2.1472 -7.1250 0.0000 -0.0000 -15.0218 4.3165 14.3609 -0.0000 0.0000 0.0000 88.2332 -19.2556 28.0867 -25.0112 36.2154 -8.2965 0.0000 0.0000 19.9187 -8.7529 -36.6036 5.2454 7.1250 -0.0000 -0.0000 31.6431 -64.1782 -15.4423
